<?xml version="1.0" encoding="utf-8"?>
<!-- Generator: Adobe Illustrator 27.8.1, SVG Export Plug-In . SVG Version: 6.00 Build 0)  -->
<svg version="1.1" id="Layer_1" xmlns="http://www.w3.org/2000/svg" xmlns:xlink="http://www.w3.org/1999/xlink" x="0px" y="0px"
	 viewBox="0 0 360 420" style="enable-background:new 0 0 360 420;" xml:space="preserve">
<style type="text/css">
	.st0{fill:#FFFFFF;}
	.st1{fill:#181818;}
	.st2{fill:#89898B;}
	.st3{fill:none;}
	.st4{fill:none;stroke:#F8B81F;stroke-width:20;stroke-miterlimit:10;}
	.st5{fill:none;stroke:#FEF4DE;stroke-width:12;stroke-miterlimit:10;}
</style>
<path class="st0" d="M70,57.1c0-5.2,4.5-9.4,10-9.4h170c22.1,0,40,16.8,40,37.5v215.4c0,5.2-4.5,9.4-10,9.4H150
	c-44.2,0-80-33.5-80-74.9V57.1z"/>
<g>
	<path class="st1" d="M105.7,217.8c0.6,0.8,0.9,1.7,0.9,2.7c0,1.4-0.5,2.6-1.5,3.4c-1,0.8-2.4,1.3-4.2,1.3h-8V208h7.7
		c1.7,0,3.1,0.4,4.1,1.2s1.5,1.9,1.5,3.3c0,1-0.3,1.9-0.8,2.5c-0.5,0.7-1.2,1.1-2.1,1.4C104.3,216.5,105.1,217,105.7,217.8z
		 M97.1,214.9h2.7c0.7,0,1.2-0.2,1.6-0.5s0.6-0.7,0.6-1.3s-0.2-1-0.6-1.3s-0.9-0.5-1.6-0.5h-2.7V214.9z M101.8,221.3
		c0.4-0.3,0.6-0.8,0.6-1.4c0-0.6-0.2-1.1-0.6-1.4s-1-0.5-1.7-0.5h-3v3.8h3.1C100.8,221.7,101.4,221.6,101.8,221.3z"/>
	<path class="st1" d="M121.8,219.3h-9.5c0.1,0.8,0.3,1.5,0.8,1.9s1.1,0.7,1.8,0.7c1,0,1.8-0.4,2.2-1.3h4.5c-0.2,0.9-0.6,1.7-1.2,2.4
		s-1.3,1.3-2.2,1.7s-1.9,0.6-3,0.6c-1.3,0-2.5-0.3-3.6-0.9s-1.9-1.4-2.4-2.4c-0.6-1.1-0.9-2.3-0.9-3.7s0.3-2.7,0.9-3.7
		c0.6-1.1,1.4-1.9,2.4-2.4c1-0.6,2.2-0.9,3.6-0.9c1.3,0,2.5,0.3,3.5,0.8c1,0.6,1.8,1.3,2.4,2.4c0.6,1,0.9,2.2,0.9,3.6
		C121.9,218.4,121.9,218.9,121.8,219.3z M117.6,217c0-0.7-0.2-1.3-0.7-1.7s-1.1-0.6-1.8-0.6c-0.7,0-1.3,0.2-1.8,0.6
		c-0.5,0.4-0.8,1-0.9,1.7H117.6z"/>
	<path class="st1" d="M126.5,224.7c-0.9-0.4-1.7-1-2.2-1.7s-0.8-1.5-0.9-2.4h4.1c0,0.5,0.3,0.9,0.7,1.2s0.9,0.4,1.4,0.4
		s0.9-0.1,1.2-0.3s0.4-0.5,0.4-0.8c0-0.4-0.2-0.7-0.6-0.9c-0.4-0.2-1.1-0.4-2-0.6c-1-0.2-1.8-0.5-2.4-0.7s-1.2-0.7-1.7-1.2
		s-0.7-1.3-0.7-2.2c0-0.8,0.2-1.5,0.6-2.1s1.1-1.2,1.9-1.5c0.8-0.4,1.8-0.6,3-0.6c1.7,0,3.1,0.4,4.1,1.3c1,0.8,1.6,2,1.7,3.4h-3.9
		c-0.1-0.5-0.3-0.8-0.6-1.1c-0.4-0.3-0.8-0.4-1.4-0.4c-0.5,0-0.9,0.1-1.1,0.3c-0.3,0.2-0.4,0.4-0.4,0.8c0,0.4,0.2,0.7,0.6,0.9
		c0.4,0.2,1.1,0.4,1.9,0.6c1,0.3,1.8,0.5,2.5,0.8s1.2,0.7,1.7,1.2s0.7,1.3,0.7,2.3c0,0.8-0.2,1.5-0.7,2.1c-0.4,0.6-1.1,1.1-1.9,1.5
		c-0.8,0.4-1.8,0.5-2.9,0.5C128.5,225.3,127.4,225.1,126.5,224.7z"/>
	<path class="st1" d="M145.4,221.6v3.5h-2.1c-1.5,0-2.7-0.4-3.5-1.1c-0.8-0.7-1.3-2-1.3-3.6V215h-1.7v-3.5h1.7v-3.3h4.2v3.3h2.7v3.5
		h-2.7v5.5c0,0.4,0.1,0.7,0.3,0.9s0.5,0.3,1,0.3L145.4,221.6L145.4,221.6z"/>
	<path class="st1" d="M155.7,224.7c-1-0.4-1.8-1-2.4-1.8s-0.9-1.8-0.9-2.9h4.5c0.1,0.6,0.3,1.1,0.7,1.5c0.4,0.3,0.9,0.5,1.5,0.5
		s1.1-0.1,1.5-0.4c0.4-0.3,0.5-0.7,0.5-1.2c0-0.4-0.1-0.8-0.4-1.1s-0.6-0.5-1.1-0.7c-0.4-0.2-1-0.4-1.8-0.6c-1.1-0.3-2-0.7-2.7-1
		s-1.3-0.8-1.8-1.5s-0.8-1.5-0.8-2.6c0-1.6,0.6-2.9,1.7-3.8c1.2-0.9,2.7-1.4,4.5-1.4c1.9,0,3.4,0.5,4.6,1.4c1.2,0.9,1.8,2.2,1.9,3.8
		h-4.5c0-0.6-0.2-1-0.6-1.3s-0.9-0.5-1.4-0.5s-0.9,0.1-1.2,0.4c-0.3,0.3-0.5,0.7-0.5,1.2c0,0.6,0.3,1,0.8,1.3s1.3,0.6,2.4,1
		c1.1,0.4,2,0.7,2.7,1.1c0.7,0.3,1.3,0.8,1.8,1.5s0.8,1.5,0.8,2.5s-0.2,1.9-0.7,2.7s-1.2,1.4-2.2,1.9c-0.9,0.5-2.1,0.7-3.4,0.7
		C157.8,225.3,156.7,225.1,155.7,224.7z"/>
	<path class="st1" d="M170.5,224.4c-1.1-0.6-1.9-1.4-2.5-2.4c-0.6-1.1-0.9-2.3-0.9-3.7s0.3-2.6,0.9-3.7c0.6-1.1,1.5-1.9,2.5-2.5
		c1.1-0.6,2.3-0.9,3.6-0.9s2.5,0.3,3.6,0.9c1.1,0.6,1.9,1.4,2.5,2.5s0.9,2.3,0.9,3.7s-0.3,2.6-0.9,3.7c-0.6,1.1-1.5,1.9-2.6,2.5
		s-2.3,0.9-3.6,0.9S171.6,225,170.5,224.4z M176.2,220.8c0.6-0.6,0.8-1.4,0.8-2.5s-0.3-1.9-0.8-2.5s-1.2-0.9-2-0.9s-1.5,0.3-2,0.9
		s-0.8,1.4-0.8,2.5s0.3,1.9,0.8,2.5s1.2,0.9,2,0.9S175.6,221.4,176.2,220.8z"/>
	<path class="st1" d="M187.7,207v18.1h-4.2V207H187.7z"/>
	<path class="st1" d="M204.2,211.4v13.7H200v-1.9c-0.4,0.6-1,1.1-1.7,1.5s-1.5,0.6-2.4,0.6c-1,0-2-0.2-2.8-0.7s-1.4-1.1-1.9-2
		c-0.4-0.9-0.7-1.9-0.7-3.1v-8h4.2v7.4c0,0.9,0.2,1.6,0.7,2.1s1.1,0.8,1.9,0.8c0.8,0,1.5-0.3,1.9-0.8c0.5-0.5,0.7-1.2,0.7-2.1v-7.4
		h4.3V211.4z"/>
	<path class="st1" d="M214.9,221.6v3.5h-2.1c-1.5,0-2.7-0.4-3.5-1.1c-0.8-0.7-1.3-2-1.3-3.6V215h-1.7v-3.5h1.7v-3.3h4.2v3.3h2.7v3.5
		h-2.7v5.5c0,0.4,0.1,0.7,0.3,0.9s0.5,0.3,1,0.3L214.9,221.6L214.9,221.6z"/>
	<path class="st1" d="M217.5,209.4c-0.5-0.4-0.7-1-0.7-1.6c0-0.7,0.2-1.2,0.7-1.6c0.5-0.4,1.1-0.6,1.8-0.6s1.3,0.2,1.8,0.6
		c0.5,0.4,0.7,1,0.7,1.6s-0.2,1.2-0.7,1.6c-0.5,0.4-1.1,0.6-1.8,0.6S218,209.8,217.5,209.4z M221.4,211.4v13.7h-4.2v-13.7H221.4z"/>
	<path class="st1" d="M227,224.4c-1.1-0.6-1.9-1.4-2.5-2.4c-0.6-1.1-0.9-2.3-0.9-3.7s0.3-2.6,0.9-3.7c0.6-1.1,1.5-1.9,2.5-2.5
		c1.1-0.6,2.3-0.9,3.6-0.9s2.5,0.3,3.6,0.9c1.1,0.6,1.9,1.4,2.5,2.5s0.9,2.3,0.9,3.7s-0.3,2.6-0.9,3.7c-0.6,1.1-1.5,1.9-2.6,2.5
		s-2.3,0.9-3.6,0.9C229.3,225.3,228.1,225,227,224.4z M232.7,220.8c0.6-0.6,0.8-1.4,0.8-2.5s-0.3-1.9-0.8-2.5s-1.2-0.9-2-0.9
		s-1.5,0.3-2,0.9c-0.5,0.6-0.8,1.4-0.8,2.5s0.3,1.9,0.8,2.5s1.2,0.9,2,0.9C231.4,221.7,232.1,221.4,232.7,220.8z"/>
	<path class="st1" d="M252.2,212.9c1,1,1.4,2.5,1.4,4.3v8h-4.2v-7.4c0-0.9-0.2-1.6-0.7-2.1s-1.1-0.8-1.9-0.8s-1.4,0.3-1.9,0.8
		s-0.7,1.2-0.7,2.1v7.4H240v-13.7h4.2v1.8c0.4-0.6,1-1.1,1.7-1.4c0.7-0.4,1.5-0.5,2.4-0.5C249.9,211.3,251.2,211.8,252.2,212.9z"/>
	<path class="st1" d="M258.9,224.7c-0.9-0.4-1.7-1-2.2-1.7s-0.8-1.5-0.9-2.4h4.1c0,0.5,0.3,0.9,0.7,1.2s0.9,0.4,1.4,0.4
		s0.9-0.1,1.2-0.3c0.3-0.2,0.4-0.5,0.4-0.8c0-0.4-0.2-0.7-0.6-0.9s-1.1-0.4-2-0.6c-1-0.2-1.8-0.5-2.4-0.7s-1.2-0.7-1.7-1.2
		s-0.7-1.3-0.7-2.2c0-0.8,0.2-1.5,0.6-2.1s1.1-1.2,1.9-1.5s1.8-0.6,3-0.6c1.7,0,3.1,0.4,4.1,1.3c1,0.8,1.6,2,1.7,3.4h-3.9
		c-0.1-0.5-0.3-0.8-0.6-1.1c-0.4-0.3-0.8-0.4-1.4-0.4c-0.5,0-0.9,0.1-1.1,0.3c-0.3,0.2-0.4,0.4-0.4,0.8c0,0.4,0.2,0.7,0.6,0.9
		s1.1,0.4,1.9,0.6c1,0.3,1.8,0.5,2.5,0.8c0.6,0.3,1.2,0.7,1.7,1.2c0.5,0.6,0.7,1.3,0.7,2.3c0,0.8-0.2,1.5-0.7,2.1
		c-0.4,0.6-1.1,1.1-1.9,1.5s-1.8,0.5-2.9,0.5C260.9,225.3,259.8,225.1,258.9,224.7z"/>
	<path class="st2" d="M109.6,244.4v1.4H104v4.3h4.5v1.4H104v5.8h-1.7v-12.8L109.6,244.4L109.6,244.4z"/>
	<path class="st2" d="M113.4,256.8c-0.8-0.4-1.4-1-1.8-1.8s-0.7-1.7-0.7-2.7s0.2-1.9,0.7-2.7c0.4-0.8,1.1-1.4,1.8-1.8
		c0.8-0.4,1.6-0.6,2.6-0.6s1.8,0.2,2.6,0.6c0.8,0.4,1.4,1,1.8,1.8s0.7,1.7,0.7,2.7s-0.2,2-0.7,2.7c-0.5,0.8-1.1,1.4-1.9,1.8
		c-0.8,0.4-1.7,0.6-2.6,0.6C115,257.4,114.2,257.2,113.4,256.8z M117.7,255.5c0.5-0.3,1-0.7,1.3-1.3s0.5-1.2,0.5-2.1
		c0-0.8-0.2-1.5-0.5-2.1s-0.7-1-1.2-1.3s-1.1-0.4-1.7-0.4s-1.2,0.1-1.7,0.4c-0.5,0.3-0.9,0.7-1.2,1.3c-0.3,0.6-0.5,1.2-0.5,2.1
		c0,0.8,0.1,1.5,0.4,2.1s0.7,1,1.2,1.3s1.1,0.4,1.7,0.4S117.1,255.8,117.7,255.5z"/>
	<path class="st2" d="M126.3,247.5c0.5-0.3,1.2-0.5,2-0.5v1.7h-0.4c-1.9,0-2.8,1-2.8,3v5.5h-1.7v-10.1h1.7v1.6
		C125.3,248.2,125.7,247.8,126.3,247.5z"/>
	<path class="st2" d="M144.1,244.4l-4.2,8v4.8h-1.7v-4.8l-4.2-8h1.9l3.2,6.5l3.2-6.5H144.1z"/>
	<path class="st2" d="M147.6,256.8c-0.8-0.4-1.4-1-1.8-1.8c-0.4-0.8-0.7-1.7-0.7-2.7s0.2-1.9,0.7-2.7c0.4-0.8,1.1-1.4,1.8-1.8
		c0.8-0.4,1.6-0.6,2.6-0.6s1.8,0.2,2.6,0.6c0.8,0.4,1.4,1,1.8,1.8s0.7,1.7,0.7,2.7s-0.2,2-0.7,2.7c-0.5,0.8-1.1,1.4-1.9,1.8
		c-0.8,0.4-1.7,0.6-2.6,0.6C149.3,257.4,148.4,257.2,147.6,256.8z M151.9,255.5c0.5-0.3,1-0.7,1.3-1.3s0.5-1.2,0.5-2.1
		c0-0.8-0.2-1.5-0.5-2.1s-0.7-1-1.2-1.3s-1.1-0.4-1.7-0.4c-0.6,0-1.2,0.1-1.7,0.4c-0.5,0.3-0.9,0.7-1.2,1.3s-0.5,1.2-0.5,2.1
		c0,0.8,0.1,1.5,0.4,2.1c0.3,0.6,0.7,1,1.2,1.3s1.1,0.4,1.7,0.4S151.4,255.8,151.9,255.5z"/>
	<path class="st2" d="M166.5,247.2v10.1h-1.7v-1.5c-0.3,0.5-0.8,0.9-1.3,1.2c-0.6,0.3-1.2,0.4-1.9,0.4c-0.8,0-1.5-0.2-2.1-0.5
		s-1.1-0.8-1.5-1.5c-0.4-0.6-0.5-1.4-0.5-2.4v-5.9h1.7v5.7c0,1,0.3,1.8,0.8,2.3s1.2,0.8,2.1,0.8c0.9,0,1.6-0.3,2.1-0.8
		s0.8-1.4,0.8-2.4v-5.5L166.5,247.2L166.5,247.2z"/>
	<path class="st2" d="M172.3,247.5c0.5-0.3,1.2-0.5,2-0.5v1.7h-0.4c-1.9,0-2.8,1-2.8,3v5.5h-1.7v-10.1h1.7v1.6
		C171.3,248.2,171.7,247.8,172.3,247.5z"/>
	<path class="st2" d="M188.8,251.2c0.4,0.3,0.7,0.7,0.9,1.1s0.3,0.9,0.3,1.5s-0.2,1.2-0.5,1.8c-0.3,0.5-0.8,0.9-1.4,1.2
		c-0.6,0.3-1.4,0.5-2.2,0.5h-4.8v-12.8h4.6c0.9,0,1.6,0.1,2.2,0.4c0.6,0.3,1.1,0.7,1.4,1.2c0.3,0.5,0.5,1,0.5,1.7
		c0,0.8-0.2,1.4-0.6,1.9c-0.4,0.5-1,0.9-1.6,1.1C187.9,250.7,188.4,250.9,188.8,251.2z M182.7,250h2.8c0.8,0,1.4-0.2,1.8-0.6
		c0.4-0.4,0.6-0.9,0.6-1.5s-0.2-1.2-0.6-1.5c-0.4-0.4-1-0.6-1.9-0.6h-2.8L182.7,250L182.7,250z M187.6,255.3
		c0.5-0.4,0.7-0.9,0.7-1.6c0-0.7-0.2-1.3-0.7-1.7s-1.1-0.6-2-0.6h-2.9v4.5h3C186.5,255.9,187.2,255.7,187.6,255.3z"/>
	<path class="st2" d="M201.3,247.2v10.1h-1.7v-1.5c-0.3,0.5-0.8,0.9-1.3,1.2c-0.6,0.3-1.2,0.4-1.9,0.4c-0.8,0-1.5-0.2-2.1-0.5
		s-1.1-0.8-1.5-1.5c-0.4-0.6-0.5-1.4-0.5-2.4v-5.9h1.7v5.7c0,1,0.3,1.8,0.8,2.3s1.2,0.8,2.1,0.8c0.9,0,1.6-0.3,2.1-0.8
		c0.5-0.6,0.8-1.4,0.8-2.4v-5.5L201.3,247.2L201.3,247.2z"/>
	<path class="st2" d="M205.6,257c-0.6-0.3-1.1-0.6-1.5-1.1s-0.6-1-0.6-1.6h1.7c0,0.5,0.3,0.9,0.7,1.2s1,0.5,1.7,0.5
		c0.6,0,1.1-0.1,1.5-0.4c0.4-0.3,0.6-0.6,0.6-1.1c0-0.4-0.2-0.8-0.6-1s-1-0.4-1.8-0.6c-0.7-0.2-1.4-0.4-1.8-0.6
		c-0.5-0.2-0.9-0.5-1.2-0.9s-0.5-0.9-0.5-1.6c0-0.5,0.2-1,0.5-1.4s0.7-0.8,1.3-1c0.6-0.3,1.2-0.4,1.9-0.4c1.1,0,2,0.3,2.7,0.8
		c0.7,0.6,1.1,1.3,1.1,2.3h-1.7c0-0.5-0.2-0.9-0.6-1.3s-0.9-0.5-1.6-0.5c-0.6,0-1.1,0.1-1.4,0.4c-0.4,0.3-0.5,0.6-0.5,1
		c0,0.3,0.1,0.6,0.3,0.8s0.5,0.4,0.8,0.5s0.8,0.3,1.3,0.4c0.7,0.2,1.3,0.4,1.8,0.6c0.5,0.2,0.8,0.5,1.2,0.9c0.3,0.4,0.5,0.9,0.5,1.5
		s-0.2,1-0.5,1.5c-0.3,0.4-0.7,0.8-1.3,1c-0.6,0.3-1.2,0.4-1.9,0.4C206.9,257.4,206.2,257.3,205.6,257z"/>
	<path class="st2" d="M213.7,245.2c-0.2-0.2-0.3-0.5-0.3-0.8s0.1-0.6,0.3-0.8s0.5-0.3,0.8-0.3s0.6,0.1,0.8,0.3s0.3,0.5,0.3,0.8
		s-0.1,0.6-0.3,0.8s-0.5,0.3-0.8,0.3S213.9,245.4,213.7,245.2z M215.3,247.2v10.1h-1.7v-10.1H215.3z"/>
	<path class="st2" d="M226.1,248.1c0.8,0.7,1.1,1.8,1.1,3.2v5.9h-1.7v-5.7c0-1-0.3-1.8-0.8-2.3s-1.2-0.8-2.1-0.8
		c-0.9,0-1.6,0.3-2.1,0.8c-0.5,0.6-0.8,1.4-0.8,2.4v5.6H218v-10.1h1.7v1.4c0.3-0.5,0.8-0.9,1.3-1.2c0.6-0.3,1.2-0.4,1.9-0.4
		C224.3,247,225.3,247.4,226.1,248.1z"/>
	<path class="st2" d="M239.1,252.8h-8c0.1,1,0.4,1.8,1,2.3c0.6,0.6,1.4,0.8,2.2,0.8c0.7,0,1.3-0.2,1.8-0.5s0.8-0.8,1-1.3h1.8
		c-0.3,1-0.8,1.8-1.6,2.4c-0.8,0.6-1.8,0.9-3,0.9c-1,0-1.8-0.2-2.6-0.6c-0.8-0.4-1.3-1-1.8-1.8c-0.4-0.8-0.6-1.7-0.6-2.7
		s0.2-2,0.6-2.7c0.4-0.8,1-1.4,1.8-1.8c0.8-0.4,1.6-0.6,2.6-0.6s1.8,0.2,2.5,0.6s1.3,1,1.7,1.7s0.6,1.6,0.6,2.5
		C239.1,252.1,239.1,252.5,239.1,252.8z M237,249.8c-0.3-0.5-0.7-0.8-1.1-1c-0.5-0.2-1-0.4-1.6-0.4c-0.8,0-1.6,0.3-2.2,0.8
		c-0.6,0.5-0.9,1.3-1,2.2h6.4C237.4,250.8,237.2,250.3,237,249.8z"/>
	<path class="st2" d="M242.8,257c-0.6-0.3-1.1-0.6-1.5-1.1s-0.6-1-0.6-1.6h1.7c0,0.5,0.3,0.9,0.7,1.2s1,0.5,1.7,0.5
		c0.6,0,1.1-0.1,1.5-0.4c0.4-0.3,0.6-0.6,0.6-1.1c0-0.4-0.2-0.8-0.6-1s-1-0.4-1.8-0.6c-0.7-0.2-1.4-0.4-1.8-0.6
		c-0.5-0.2-0.9-0.5-1.2-0.9s-0.5-0.9-0.5-1.6c0-0.5,0.2-1,0.5-1.4s0.7-0.8,1.3-1c0.6-0.3,1.2-0.4,1.9-0.4c1.1,0,2,0.3,2.7,0.8
		c0.7,0.6,1.1,1.3,1.1,2.3h-1.7c0-0.5-0.2-0.9-0.6-1.3s-0.9-0.5-1.6-0.5c-0.6,0-1.1,0.1-1.4,0.4c-0.4,0.3-0.5,0.6-0.5,1
		c0,0.3,0.1,0.6,0.3,0.8s0.5,0.4,0.8,0.5s0.8,0.3,1.3,0.4c0.7,0.2,1.3,0.4,1.8,0.6c0.5,0.2,0.8,0.5,1.2,0.9c0.3,0.4,0.5,0.9,0.5,1.5
		s-0.2,1-0.5,1.5c-0.3,0.4-0.7,0.8-1.3,1c-0.6,0.3-1.2,0.4-1.9,0.4C244.1,257.4,243.4,257.3,242.8,257z"/>
	<path class="st2" d="M252.4,257c-0.6-0.3-1.1-0.6-1.5-1.1s-0.6-1-0.6-1.6h1.7c0,0.5,0.3,0.9,0.7,1.2s1,0.5,1.7,0.5
		c0.6,0,1.1-0.1,1.5-0.4c0.4-0.3,0.6-0.6,0.6-1.1c0-0.4-0.2-0.8-0.6-1s-1-0.4-1.8-0.6c-0.7-0.2-1.4-0.4-1.8-0.6
		c-0.5-0.2-0.9-0.5-1.2-0.9s-0.5-0.9-0.5-1.6c0-0.5,0.2-1,0.5-1.4s0.7-0.8,1.3-1c0.6-0.3,1.2-0.4,1.9-0.4c1.1,0,2,0.3,2.7,0.8
		c0.7,0.6,1.1,1.3,1.1,2.3h-1.7c0-0.5-0.2-0.9-0.6-1.3s-0.9-0.5-1.6-0.5c-0.6,0-1.1,0.1-1.4,0.4c-0.4,0.3-0.5,0.6-0.5,1
		c0,0.3,0.1,0.6,0.3,0.8s0.5,0.4,0.8,0.5s0.8,0.3,1.3,0.4c0.7,0.2,1.3,0.4,1.8,0.6c0.5,0.2,0.8,0.5,1.2,0.9c0.3,0.4,0.5,0.9,0.5,1.5
		s-0.2,1-0.5,1.5c-0.3,0.4-0.7,0.8-1.3,1c-0.6,0.3-1.2,0.4-1.9,0.4C253.7,257.4,253,257.3,252.4,257z"/>
</g>
<g>
	<rect x="141.8" y="129.5" class="st3" width="50.5" height="50.5"/>
	<circle class="st4" cx="178" cy="136.3" r="32.5"/>
	<circle class="st5" cx="178" cy="136.3" r="43.5"/>
	<rect x="178" y="73.7" class="st0" width="72" height="66"/>
</g>
</svg>
