<?xml version="1.0" encoding="utf-8"?>
<!-- Generator: Adobe Illustrator 27.8.1, SVG Export Plug-In . SVG Version: 6.00 Build 0)  -->
<svg version="1.1" id="Layer_1" xmlns="http://www.w3.org/2000/svg" xmlns:xlink="http://www.w3.org/1999/xlink" x="0px" y="0px"
	 viewBox="0 0 360 420" style="enable-background:new 0 0 360 420;" xml:space="preserve">
<style type="text/css">
	.st0{fill:#FFFFFF;}
	.st1{fill:none;}
	.st2{fill:#181818;}
	.st3{fill:#89898B;}
</style>
<path class="st0" d="M70,40c0-5.5,4.5-10,10-10h170c22.1,0,40,17.9,40,40v230c0,5.5-4.5,10-10,10H150c-44.2,0-80-35.8-80-80V40z"/>
<rect x="135" y="69" class="st1" width="90" height="90"/>
<g>
	<path class="st2" d="M105.7,211.8c0.6,0.8,0.9,1.7,0.9,2.7c0,1.4-0.5,2.6-1.5,3.4c-1,0.8-2.4,1.3-4.2,1.3h-8v-17.2h7.7
		c1.7,0,3.1,0.4,4.1,1.2c1,0.8,1.5,1.9,1.5,3.3c0,1-0.3,1.9-0.8,2.5c-0.5,0.7-1.2,1.1-2.1,1.4C104.3,210.5,105.1,211,105.7,211.8z
		 M97.1,208.9h2.7c0.7,0,1.2-0.2,1.6-0.5c0.4-0.3,0.6-0.7,0.6-1.3c0-0.6-0.2-1-0.6-1.3c-0.4-0.3-0.9-0.5-1.6-0.5h-2.7V208.9z
		 M101.8,215.3c0.4-0.3,0.6-0.8,0.6-1.4c0-0.6-0.2-1.1-0.6-1.4s-1-0.5-1.7-0.5h-3v3.8h3.1C100.8,215.7,101.4,215.6,101.8,215.3z"/>
	<path class="st2" d="M121.8,213.3h-9.5c0.1,0.8,0.3,1.5,0.8,1.9c0.5,0.4,1.1,0.7,1.8,0.7c1,0,1.8-0.4,2.2-1.3h4.5
		c-0.2,0.9-0.6,1.7-1.2,2.4c-0.6,0.7-1.3,1.3-2.2,1.7s-1.9,0.6-3,0.6c-1.3,0-2.5-0.3-3.6-0.9s-1.9-1.4-2.4-2.4
		c-0.6-1.1-0.9-2.3-0.9-3.7s0.3-2.7,0.9-3.7c0.6-1.1,1.4-1.9,2.4-2.4c1-0.6,2.2-0.9,3.6-0.9c1.3,0,2.5,0.3,3.5,0.8
		c1,0.6,1.8,1.3,2.4,2.4c0.6,1,0.9,2.2,0.9,3.6C121.9,212.4,121.9,212.9,121.8,213.3z M117.6,211c0-0.7-0.2-1.3-0.7-1.7
		c-0.5-0.4-1.1-0.6-1.8-0.6c-0.7,0-1.3,0.2-1.8,0.6c-0.5,0.4-0.8,1-0.9,1.7H117.6z"/>
	<path class="st2" d="M126.5,218.7c-0.9-0.4-1.7-1-2.2-1.7s-0.8-1.5-0.9-2.4h4.1c0,0.5,0.3,0.9,0.7,1.2s0.9,0.4,1.4,0.4
		c0.5,0,0.9-0.1,1.2-0.3s0.4-0.5,0.4-0.8c0-0.4-0.2-0.7-0.6-0.9c-0.4-0.2-1.1-0.4-2-0.6c-1-0.2-1.8-0.5-2.4-0.7s-1.2-0.7-1.7-1.2
		c-0.5-0.5-0.7-1.3-0.7-2.2c0-0.8,0.2-1.5,0.6-2.1c0.4-0.6,1.1-1.2,1.9-1.5c0.8-0.4,1.8-0.6,3-0.6c1.7,0,3.1,0.4,4.1,1.3
		c1,0.8,1.6,2,1.7,3.4h-3.9c-0.1-0.5-0.3-0.8-0.6-1.1c-0.4-0.3-0.8-0.4-1.4-0.4c-0.5,0-0.9,0.1-1.1,0.3c-0.3,0.2-0.4,0.4-0.4,0.8
		c0,0.4,0.2,0.7,0.6,0.9c0.4,0.2,1.1,0.4,1.9,0.6c1,0.3,1.8,0.5,2.5,0.8s1.2,0.7,1.7,1.2s0.7,1.3,0.7,2.3c0,0.8-0.2,1.5-0.7,2.1
		c-0.4,0.6-1.1,1.1-1.9,1.5c-0.8,0.4-1.8,0.5-2.9,0.5C128.5,219.3,127.4,219.1,126.5,218.7z"/>
	<path class="st2" d="M145.4,215.6v3.5h-2.1c-1.5,0-2.7-0.4-3.5-1.1c-0.8-0.7-1.3-2-1.3-3.6v-5.4h-1.7v-3.5h1.7v-3.3h4.2v3.3h2.7
		v3.5h-2.7v5.5c0,0.4,0.1,0.7,0.3,0.9c0.2,0.2,0.5,0.3,1,0.3H145.4z"/>
	<path class="st2" d="M155.7,218.7c-1-0.4-1.8-1-2.4-1.8s-0.9-1.8-0.9-2.9h4.5c0.1,0.6,0.3,1.1,0.7,1.5c0.4,0.3,0.9,0.5,1.5,0.5
		c0.6,0,1.1-0.1,1.5-0.4c0.4-0.3,0.5-0.7,0.5-1.2c0-0.4-0.1-0.8-0.4-1.1s-0.6-0.5-1.1-0.7c-0.4-0.2-1-0.4-1.8-0.6
		c-1.1-0.3-2-0.7-2.7-1s-1.3-0.8-1.8-1.5c-0.5-0.7-0.8-1.5-0.8-2.6c0-1.6,0.6-2.9,1.7-3.8c1.2-0.9,2.7-1.4,4.5-1.4
		c1.9,0,3.4,0.5,4.6,1.4c1.2,0.9,1.8,2.2,1.9,3.8h-4.5c0-0.6-0.2-1-0.6-1.3s-0.9-0.5-1.4-0.5c-0.5,0-0.9,0.1-1.2,0.4
		c-0.3,0.3-0.5,0.7-0.5,1.2c0,0.6,0.3,1,0.8,1.3c0.5,0.3,1.3,0.6,2.4,1c1.1,0.4,2,0.7,2.7,1.1c0.7,0.3,1.3,0.8,1.8,1.5
		c0.5,0.7,0.8,1.5,0.8,2.5c0,1-0.2,1.9-0.7,2.7c-0.5,0.8-1.2,1.4-2.2,1.9c-0.9,0.5-2.1,0.7-3.4,0.7
		C157.8,219.3,156.7,219.1,155.7,218.7z"/>
	<path class="st2" d="M170.5,218.4c-1.1-0.6-1.9-1.4-2.5-2.4c-0.6-1.1-0.9-2.3-0.9-3.7c0-1.4,0.3-2.6,0.9-3.7
		c0.6-1.1,1.5-1.9,2.5-2.5c1.1-0.6,2.3-0.9,3.6-0.9c1.3,0,2.5,0.3,3.6,0.9c1.1,0.6,1.9,1.4,2.5,2.5c0.6,1.1,0.9,2.3,0.9,3.7
		c0,1.4-0.3,2.6-0.9,3.7c-0.6,1.1-1.5,1.9-2.6,2.5c-1.1,0.6-2.3,0.9-3.6,0.9S171.6,219,170.5,218.4z M176.2,214.8
		c0.6-0.6,0.8-1.4,0.8-2.5s-0.3-1.9-0.8-2.5c-0.5-0.6-1.2-0.9-2-0.9c-0.8,0-1.5,0.3-2,0.9s-0.8,1.4-0.8,2.5c0,1.1,0.3,1.9,0.8,2.5
		s1.2,0.9,2,0.9S175.6,215.4,176.2,214.8z"/>
	<path class="st2" d="M187.7,201v18.1h-4.2V201H187.7z"/>
	<path class="st2" d="M204.2,205.4v13.7H200v-1.9c-0.4,0.6-1,1.1-1.7,1.5c-0.7,0.4-1.5,0.6-2.4,0.6c-1,0-2-0.2-2.8-0.7
		s-1.4-1.1-1.9-2c-0.4-0.9-0.7-1.9-0.7-3.1v-8h4.2v7.4c0,0.9,0.2,1.6,0.7,2.1c0.5,0.5,1.1,0.8,1.9,0.8c0.8,0,1.5-0.3,1.9-0.8
		c0.5-0.5,0.7-1.2,0.7-2.1v-7.4H204.2z"/>
	<path class="st2" d="M214.9,215.6v3.5h-2.1c-1.5,0-2.7-0.4-3.5-1.1c-0.8-0.7-1.3-2-1.3-3.6v-5.4h-1.7v-3.5h1.7v-3.3h4.2v3.3h2.7
		v3.5h-2.7v5.5c0,0.4,0.1,0.7,0.3,0.9c0.2,0.2,0.5,0.3,1,0.3H214.9z"/>
	<path class="st2" d="M217.5,203.4c-0.5-0.4-0.7-1-0.7-1.6c0-0.7,0.2-1.2,0.7-1.6c0.5-0.4,1.1-0.6,1.8-0.6c0.7,0,1.3,0.2,1.8,0.6
		c0.5,0.4,0.7,1,0.7,1.6c0,0.6-0.2,1.2-0.7,1.6c-0.5,0.4-1.1,0.6-1.8,0.6C218.6,204,218,203.8,217.5,203.4z M221.4,205.4v13.7h-4.2
		v-13.7H221.4z"/>
	<path class="st2" d="M227,218.4c-1.1-0.6-1.9-1.4-2.5-2.4c-0.6-1.1-0.9-2.3-0.9-3.7c0-1.4,0.3-2.6,0.9-3.7c0.6-1.1,1.5-1.9,2.5-2.5
		c1.1-0.6,2.3-0.9,3.6-0.9c1.3,0,2.5,0.3,3.6,0.9c1.1,0.6,1.9,1.4,2.5,2.5c0.6,1.1,0.9,2.3,0.9,3.7c0,1.4-0.3,2.6-0.9,3.7
		c-0.6,1.1-1.5,1.9-2.6,2.5c-1.1,0.6-2.3,0.9-3.6,0.9C229.3,219.3,228.1,219,227,218.4z M232.7,214.8c0.6-0.6,0.8-1.4,0.8-2.5
		s-0.3-1.9-0.8-2.5c-0.5-0.6-1.2-0.9-2-0.9c-0.8,0-1.5,0.3-2,0.9c-0.5,0.6-0.8,1.4-0.8,2.5c0,1.1,0.3,1.9,0.8,2.5
		c0.5,0.6,1.2,0.9,2,0.9C231.4,215.7,232.1,215.4,232.7,214.8z"/>
	<path class="st2" d="M252.2,206.9c1,1,1.4,2.5,1.4,4.3v8h-4.2v-7.4c0-0.9-0.2-1.6-0.7-2.1c-0.5-0.5-1.1-0.8-1.9-0.8
		s-1.4,0.3-1.9,0.8c-0.5,0.5-0.7,1.2-0.7,2.1v7.4H240v-13.7h4.2v1.8c0.4-0.6,1-1.1,1.7-1.4c0.7-0.4,1.5-0.5,2.4-0.5
		C249.9,205.3,251.2,205.8,252.2,206.9z"/>
	<path class="st2" d="M258.9,218.7c-0.9-0.4-1.7-1-2.2-1.7c-0.5-0.7-0.8-1.5-0.9-2.4h4.1c0,0.5,0.3,0.9,0.7,1.2s0.9,0.4,1.4,0.4
		c0.5,0,0.9-0.1,1.2-0.3c0.3-0.2,0.4-0.5,0.4-0.8c0-0.4-0.2-0.7-0.6-0.9c-0.4-0.2-1.1-0.4-2-0.6c-1-0.2-1.8-0.5-2.4-0.7
		s-1.2-0.7-1.7-1.2s-0.7-1.3-0.7-2.2c0-0.8,0.2-1.5,0.6-2.1c0.4-0.6,1.1-1.2,1.9-1.5s1.8-0.6,3-0.6c1.7,0,3.1,0.4,4.1,1.3
		c1,0.8,1.6,2,1.7,3.4h-3.9c-0.1-0.5-0.3-0.8-0.6-1.1c-0.4-0.3-0.8-0.4-1.4-0.4c-0.5,0-0.9,0.1-1.1,0.3c-0.3,0.2-0.4,0.4-0.4,0.8
		c0,0.4,0.2,0.7,0.6,0.9c0.4,0.2,1.1,0.4,1.9,0.6c1,0.3,1.8,0.5,2.5,0.8c0.6,0.3,1.2,0.7,1.7,1.2c0.5,0.6,0.7,1.3,0.7,2.3
		c0,0.8-0.2,1.5-0.7,2.1c-0.4,0.6-1.1,1.1-1.9,1.5c-0.8,0.4-1.8,0.5-2.9,0.5C260.9,219.3,259.8,219.1,258.9,218.7z"/>
	<path class="st3" d="M109.6,238.4v1.4H104v4.3h4.5v1.4H104v5.8h-1.7v-12.8H109.6z"/>
	<path class="st3" d="M113.4,250.8c-0.8-0.4-1.4-1-1.8-1.8c-0.4-0.8-0.7-1.7-0.7-2.7c0-1,0.2-1.9,0.7-2.7c0.4-0.8,1.1-1.4,1.8-1.8
		c0.8-0.4,1.6-0.6,2.6-0.6s1.8,0.2,2.6,0.6c0.8,0.4,1.4,1,1.8,1.8s0.7,1.7,0.7,2.7c0,1-0.2,2-0.7,2.7c-0.5,0.8-1.1,1.4-1.9,1.8
		c-0.8,0.4-1.7,0.6-2.6,0.6C115,251.4,114.2,251.2,113.4,250.8z M117.7,249.5c0.5-0.3,1-0.7,1.3-1.3c0.3-0.6,0.5-1.2,0.5-2.1
		c0-0.8-0.2-1.5-0.5-2.1s-0.7-1-1.2-1.3s-1.1-0.4-1.7-0.4c-0.6,0-1.2,0.1-1.7,0.4c-0.5,0.3-0.9,0.7-1.2,1.3
		c-0.3,0.6-0.5,1.2-0.5,2.1c0,0.8,0.1,1.5,0.4,2.1c0.3,0.6,0.7,1,1.2,1.3s1.1,0.4,1.7,0.4S117.1,249.8,117.7,249.5z"/>
	<path class="st3" d="M126.3,241.5c0.5-0.3,1.2-0.5,2-0.5v1.7h-0.4c-1.9,0-2.8,1-2.8,3v5.5h-1.7v-10.1h1.7v1.6
		C125.3,242.2,125.7,241.8,126.3,241.5z"/>
	<path class="st3" d="M144.1,238.4l-4.2,8v4.8h-1.7v-4.8l-4.2-8h1.9l3.2,6.5l3.2-6.5H144.1z"/>
	<path class="st3" d="M147.6,250.8c-0.8-0.4-1.4-1-1.8-1.8c-0.4-0.8-0.7-1.7-0.7-2.7c0-1,0.2-1.9,0.7-2.7c0.4-0.8,1.1-1.4,1.8-1.8
		c0.8-0.4,1.6-0.6,2.6-0.6s1.8,0.2,2.6,0.6c0.8,0.4,1.4,1,1.8,1.8s0.7,1.7,0.7,2.7c0,1-0.2,2-0.7,2.7c-0.5,0.8-1.1,1.4-1.9,1.8
		c-0.8,0.4-1.7,0.6-2.6,0.6C149.3,251.4,148.4,251.2,147.6,250.8z M151.9,249.5c0.5-0.3,1-0.7,1.3-1.3c0.3-0.6,0.5-1.2,0.5-2.1
		c0-0.8-0.2-1.5-0.5-2.1s-0.7-1-1.2-1.3s-1.1-0.4-1.7-0.4c-0.6,0-1.2,0.1-1.7,0.4c-0.5,0.3-0.9,0.7-1.2,1.3
		c-0.3,0.6-0.5,1.2-0.5,2.1c0,0.8,0.1,1.5,0.4,2.1c0.3,0.6,0.7,1,1.2,1.3s1.1,0.4,1.7,0.4S151.4,249.8,151.9,249.5z"/>
	<path class="st3" d="M166.5,241.2v10.1h-1.7v-1.5c-0.3,0.5-0.8,0.9-1.3,1.2c-0.6,0.3-1.2,0.4-1.9,0.4c-0.8,0-1.5-0.2-2.1-0.5
		c-0.6-0.3-1.1-0.8-1.5-1.5c-0.4-0.6-0.5-1.4-0.5-2.4v-5.9h1.7v5.7c0,1,0.3,1.8,0.8,2.3s1.2,0.8,2.1,0.8c0.9,0,1.6-0.3,2.1-0.8
		s0.8-1.4,0.8-2.4v-5.5H166.5z"/>
	<path class="st3" d="M172.3,241.5c0.5-0.3,1.2-0.5,2-0.5v1.7h-0.4c-1.9,0-2.8,1-2.8,3v5.5h-1.7v-10.1h1.7v1.6
		C171.3,242.2,171.7,241.8,172.3,241.5z"/>
	<path class="st3" d="M188.8,245.2c0.4,0.3,0.7,0.7,0.9,1.1s0.3,0.9,0.3,1.5c0,0.6-0.2,1.2-0.5,1.8c-0.3,0.5-0.8,0.9-1.4,1.2
		c-0.6,0.3-1.4,0.5-2.2,0.5h-4.8v-12.8h4.6c0.9,0,1.6,0.1,2.2,0.4c0.6,0.3,1.1,0.7,1.4,1.2c0.3,0.5,0.5,1,0.5,1.7
		c0,0.8-0.2,1.4-0.6,1.9c-0.4,0.5-1,0.9-1.6,1.1C187.9,244.7,188.4,244.9,188.8,245.2z M182.7,244h2.8c0.8,0,1.4-0.2,1.8-0.6
		c0.4-0.4,0.6-0.9,0.6-1.5c0-0.6-0.2-1.2-0.6-1.5c-0.4-0.4-1-0.6-1.9-0.6h-2.8V244z M187.6,249.3c0.5-0.4,0.7-0.9,0.7-1.6
		c0-0.7-0.2-1.3-0.7-1.7c-0.5-0.4-1.1-0.6-2-0.6h-2.9v4.5h3C186.5,249.9,187.2,249.7,187.6,249.3z"/>
	<path class="st3" d="M201.3,241.2v10.1h-1.7v-1.5c-0.3,0.5-0.8,0.9-1.3,1.2c-0.6,0.3-1.2,0.4-1.9,0.4c-0.8,0-1.5-0.2-2.1-0.5
		s-1.1-0.8-1.5-1.5c-0.4-0.6-0.5-1.4-0.5-2.4v-5.9h1.7v5.7c0,1,0.3,1.8,0.8,2.3c0.5,0.5,1.2,0.8,2.1,0.8c0.9,0,1.6-0.3,2.1-0.8
		c0.5-0.6,0.8-1.4,0.8-2.4v-5.5H201.3z"/>
	<path class="st3" d="M205.6,251c-0.6-0.3-1.1-0.6-1.5-1.1c-0.4-0.5-0.6-1-0.6-1.6h1.7c0,0.5,0.3,0.9,0.7,1.2c0.4,0.3,1,0.5,1.7,0.5
		c0.6,0,1.1-0.1,1.5-0.4c0.4-0.3,0.6-0.6,0.6-1.1c0-0.4-0.2-0.8-0.6-1s-1-0.4-1.8-0.6c-0.7-0.2-1.4-0.4-1.8-0.6
		c-0.5-0.2-0.9-0.5-1.2-0.9c-0.3-0.4-0.5-0.9-0.5-1.6c0-0.5,0.2-1,0.5-1.4c0.3-0.4,0.7-0.8,1.3-1c0.6-0.3,1.2-0.4,1.9-0.4
		c1.1,0,2,0.3,2.7,0.8c0.7,0.6,1.1,1.3,1.1,2.3h-1.7c0-0.5-0.2-0.9-0.6-1.3s-0.9-0.5-1.6-0.5c-0.6,0-1.1,0.1-1.4,0.4
		c-0.4,0.3-0.5,0.6-0.5,1c0,0.3,0.1,0.6,0.3,0.8c0.2,0.2,0.5,0.4,0.8,0.5c0.3,0.1,0.8,0.3,1.3,0.4c0.7,0.2,1.3,0.4,1.8,0.6
		c0.5,0.2,0.8,0.5,1.2,0.9c0.3,0.4,0.5,0.9,0.5,1.5c0,0.6-0.2,1-0.5,1.5c-0.3,0.4-0.7,0.8-1.3,1c-0.6,0.3-1.2,0.4-1.9,0.4
		C206.9,251.4,206.2,251.3,205.6,251z"/>
	<path class="st3" d="M213.7,239.2c-0.2-0.2-0.3-0.5-0.3-0.8s0.1-0.6,0.3-0.8c0.2-0.2,0.5-0.3,0.8-0.3c0.3,0,0.6,0.1,0.8,0.3
		c0.2,0.2,0.3,0.5,0.3,0.8s-0.1,0.6-0.3,0.8c-0.2,0.2-0.5,0.3-0.8,0.3C214.2,239.5,213.9,239.4,213.7,239.2z M215.3,241.2v10.1h-1.7
		v-10.1H215.3z"/>
	<path class="st3" d="M226.1,242.1c0.8,0.7,1.1,1.8,1.1,3.2v5.9h-1.7v-5.7c0-1-0.3-1.8-0.8-2.3s-1.2-0.8-2.1-0.8
		c-0.9,0-1.6,0.3-2.1,0.8c-0.5,0.6-0.8,1.4-0.8,2.4v5.6h-1.7v-10.1h1.7v1.4c0.3-0.5,0.8-0.9,1.3-1.2c0.6-0.3,1.2-0.4,1.9-0.4
		C224.3,241,225.3,241.4,226.1,242.1z"/>
	<path class="st3" d="M239.1,246.8h-8c0.1,1,0.4,1.8,1,2.3c0.6,0.6,1.4,0.8,2.2,0.8c0.7,0,1.3-0.2,1.8-0.5c0.5-0.3,0.8-0.8,1-1.3
		h1.8c-0.3,1-0.8,1.8-1.6,2.4c-0.8,0.6-1.8,0.9-3,0.9c-1,0-1.8-0.2-2.6-0.6c-0.8-0.4-1.3-1-1.8-1.8c-0.4-0.8-0.6-1.7-0.6-2.7
		c0-1,0.2-2,0.6-2.7c0.4-0.8,1-1.4,1.8-1.8c0.8-0.4,1.6-0.6,2.6-0.6c1,0,1.8,0.2,2.5,0.6s1.3,1,1.7,1.7c0.4,0.7,0.6,1.6,0.6,2.5
		C239.1,246.1,239.1,246.5,239.1,246.8z M237,243.8c-0.3-0.5-0.7-0.8-1.1-1c-0.5-0.2-1-0.4-1.6-0.4c-0.8,0-1.6,0.3-2.2,0.8
		c-0.6,0.5-0.9,1.3-1,2.2h6.4C237.4,244.8,237.2,244.3,237,243.8z"/>
	<path class="st3" d="M242.8,251c-0.6-0.3-1.1-0.6-1.5-1.1c-0.4-0.5-0.6-1-0.6-1.6h1.7c0,0.5,0.3,0.9,0.7,1.2c0.4,0.3,1,0.5,1.7,0.5
		c0.6,0,1.1-0.1,1.5-0.4c0.4-0.3,0.6-0.6,0.6-1.1c0-0.4-0.2-0.8-0.6-1s-1-0.4-1.8-0.6c-0.7-0.2-1.4-0.4-1.8-0.6
		c-0.5-0.2-0.9-0.5-1.2-0.9c-0.3-0.4-0.5-0.9-0.5-1.6c0-0.5,0.2-1,0.5-1.4c0.3-0.4,0.7-0.8,1.3-1c0.6-0.3,1.2-0.4,1.9-0.4
		c1.1,0,2,0.3,2.7,0.8c0.7,0.6,1.1,1.3,1.1,2.3h-1.7c0-0.5-0.2-0.9-0.6-1.3s-0.9-0.5-1.6-0.5c-0.6,0-1.1,0.1-1.4,0.4
		c-0.4,0.3-0.5,0.6-0.5,1c0,0.3,0.1,0.6,0.3,0.8c0.2,0.2,0.5,0.4,0.8,0.5c0.3,0.1,0.8,0.3,1.3,0.4c0.7,0.2,1.3,0.4,1.8,0.6
		c0.5,0.2,0.8,0.5,1.2,0.9c0.3,0.4,0.5,0.9,0.5,1.5c0,0.6-0.2,1-0.5,1.5c-0.3,0.4-0.7,0.8-1.3,1c-0.6,0.3-1.2,0.4-1.9,0.4
		C244.1,251.4,243.4,251.3,242.8,251z"/>
	<path class="st3" d="M252.4,251c-0.6-0.3-1.1-0.6-1.5-1.1c-0.4-0.5-0.6-1-0.6-1.6h1.7c0,0.5,0.3,0.9,0.7,1.2c0.4,0.3,1,0.5,1.7,0.5
		c0.6,0,1.1-0.1,1.5-0.4c0.4-0.3,0.6-0.6,0.6-1.1c0-0.4-0.2-0.8-0.6-1s-1-0.4-1.8-0.6c-0.7-0.2-1.4-0.4-1.8-0.6
		c-0.5-0.2-0.9-0.5-1.2-0.9c-0.3-0.4-0.5-0.9-0.5-1.6c0-0.5,0.2-1,0.5-1.4c0.3-0.4,0.7-0.8,1.3-1c0.6-0.3,1.2-0.4,1.9-0.4
		c1.1,0,2,0.3,2.7,0.8c0.7,0.6,1.1,1.3,1.1,2.3h-1.7c0-0.5-0.2-0.9-0.6-1.3s-0.9-0.5-1.6-0.5c-0.6,0-1.1,0.1-1.4,0.4
		c-0.4,0.3-0.5,0.6-0.5,1c0,0.3,0.1,0.6,0.3,0.8c0.2,0.2,0.5,0.4,0.8,0.5c0.3,0.1,0.8,0.3,1.3,0.4c0.7,0.2,1.3,0.4,1.8,0.6
		c0.5,0.2,0.8,0.5,1.2,0.9c0.3,0.4,0.5,0.9,0.5,1.5c0,0.6-0.2,1-0.5,1.5c-0.3,0.4-0.7,0.8-1.3,1c-0.6,0.3-1.2,0.4-1.9,0.4
		C253.7,251.4,253,251.3,252.4,251z"/>
</g>
</svg>
