<?xml version="1.0" encoding="utf-8"?>
<!-- Generator: Adobe Illustrator 27.8.1, SVG Export Plug-In . SVG Version: 6.00 Build 0)  -->
<svg version="1.1" id="Layer_1" xmlns="http://www.w3.org/2000/svg" xmlns:xlink="http://www.w3.org/1999/xlink" x="0px" y="0px"
	 viewBox="0 0 371 220" style="enable-background:new 0 0 371 220;" xml:space="preserve">
<style type="text/css">
	.st0{fill:#FFFFFF;}
	.st1{fill:#FDEDEF;}
	.st2{fill:none;stroke:#EE4A62;stroke-width:2;stroke-linecap:round;stroke-linejoin:round;}
	.st3{fill:none;stroke:#EE4A62;stroke-width:2;stroke-miterlimit:10;}
	.st4{fill:#EF5269;}
	.st5{fill:#525252;}
</style>
<g>
	<path shape-rendering="crispEdges" class="st0" d="M60,70c0-27.6,22.4-50,50-50h191c5.5,0,10,4.5,10,10v40c0,27.6-22.4,50-50,50H70
		c-5.5,0-10-4.5-10-10V70z"/>
	<circle class="st1" cx="119" cy="70" r="30"/>
	<path class="st2" d="M126.7,61.8c-0.3,3.6-3,6.6-6,6.6c-3,0-5.8-2.9-6-6.6c-0.3-3.8,2.4-6.6,6-6.6C124.3,55.3,127,58.2,126.7,61.8z
		"/>
	<path class="st3" d="M120.7,72.8c-5.9,0-12,3.3-13.1,9.5c-0.1,0.7,0.3,1.5,1.1,1.5h24.1c0.8,0,1.2-0.7,1.1-1.5
		C132.7,76.1,126.6,72.8,120.7,72.8z"/>
	<path class="st2" d="M107,64v7.7 M110.8,67.9h-7.7"/>
	<path class="st4" d="M164,64v-1.6c1.7-1.3,3.1-2.4,4.3-3.5c1.2-1,2.3-1.9,3.1-2.8c0.8-0.8,1.5-1.6,2-2.2c0.5-0.7,0.9-1.3,1.1-1.8
		c0.2-0.6,0.3-1.1,0.3-1.6c0-0.7-0.2-1.3-0.5-1.9c-0.3-0.6-0.8-1-1.4-1.4c-0.6-0.3-1.2-0.5-1.9-0.5c-0.7,0-1.3,0.2-1.9,0.5
		c-0.6,0.3-1.1,0.8-1.5,1.5c-0.4,0.6-0.7,1.4-0.9,2.3l-2.7-1.2c0.2-0.9,0.5-1.7,0.9-2.4c0.4-0.7,0.9-1.4,1.6-1.9
		c0.6-0.5,1.3-0.9,2.1-1.2c0.8-0.3,1.6-0.4,2.5-0.4c1.3,0,2.5,0.3,3.6,0.9c1.1,0.6,1.9,1.4,2.5,2.4c0.6,1,0.9,2.1,0.9,3.4
		c0,0.6-0.1,1.3-0.3,1.9c-0.2,0.6-0.5,1.2-0.9,1.9c-0.4,0.6-0.9,1.3-1.6,2c-0.7,0.7-1.5,1.5-2.4,2.3c-0.9,0.8-2.1,1.7-3.3,2.7h8.9
		V64H164z M190.1,64.4c-1.6,0-3-0.4-4.3-1.3c-1.2-0.9-2.2-2.1-2.8-3.6c-0.7-1.5-1-3.3-1-5.4c0-2,0.3-3.8,1-5.4
		c0.7-1.5,1.6-2.7,2.8-3.6c1.2-0.9,2.6-1.3,4.3-1.3c1.6,0,3,0.4,4.3,1.3c1.2,0.9,2.2,2.1,2.8,3.6c0.7,1.5,1,3.3,1,5.4
		c0,2-0.3,3.8-1,5.4c-0.7,1.5-1.6,2.7-2.8,3.6C193.2,64,191.7,64.4,190.1,64.4z M190.1,61.6c1,0,1.8-0.3,2.5-0.9
		c0.7-0.6,1.3-1.5,1.7-2.6c0.4-1.1,0.6-2.5,0.6-4c0-1.5-0.2-2.9-0.6-4c-0.4-1.1-0.9-2-1.7-2.6c-0.7-0.6-1.6-0.9-2.5-0.9
		c-1,0-1.8,0.3-2.5,0.9c-0.7,0.6-1.3,1.5-1.7,2.6c-0.4,1.1-0.6,2.4-0.6,4c0,1.5,0.2,2.9,0.6,4c0.4,1.1,1,2,1.7,2.6
		C188.3,61.3,189.2,61.6,190.1,61.6z M202.7,64V44.2h3.1v8.6l7.8-8.6h3.9l-8.9,9.6l10,10.2h-4.4l-8.5-8.6V64H202.7z M225.9,60.2
		v-4.9h-4.9v-2.6h4.9v-4.9h2.6v4.9h4.9v2.6h-4.9v4.9H225.9z"/>
</g>
<g>
	<path class="st5" d="M165.6,87c-0.9-0.5-1.6-1.2-2.1-2.1c-0.5-0.9-0.8-1.9-0.8-3.1s0.3-2.1,0.8-3.1c0.5-0.9,1.2-1.6,2.1-2.1
		c0.9-0.5,1.9-0.8,2.9-0.8c1.1,0,2.1,0.3,3,0.8c0.9,0.5,1.6,1.2,2.1,2.1c0.5,0.9,0.8,1.9,0.8,3.1c0,1.1-0.3,2.2-0.8,3.1
		c-0.5,0.9-1.2,1.6-2.1,2.1s-1.9,0.8-3,0.8C167.5,87.7,166.5,87.5,165.6,87z M170.8,85.9c0.6-0.4,1.2-0.9,1.5-1.6
		c0.4-0.7,0.6-1.5,0.6-2.4c0-0.9-0.2-1.7-0.6-2.4c-0.4-0.7-0.9-1.2-1.5-1.6c-0.6-0.4-1.4-0.6-2.2-0.6c-0.8,0-1.6,0.2-2.2,0.6
		c-0.6,0.4-1.2,0.9-1.5,1.6c-0.4,0.7-0.6,1.5-0.6,2.4c0,0.9,0.2,1.7,0.6,2.4c0.4,0.7,0.9,1.2,1.5,1.6c0.6,0.4,1.4,0.6,2.2,0.6
		C169.4,86.4,170.1,86.2,170.8,85.9z"/>
	<path class="st5" d="M184.5,78.5v9.1H183v-1.3c-0.3,0.5-0.7,0.8-1.2,1.1s-1.1,0.4-1.7,0.4c-0.7,0-1.3-0.1-1.9-0.4
		c-0.6-0.3-1-0.7-1.3-1.3c-0.3-0.6-0.5-1.3-0.5-2.1v-5.3h1.5v5.1c0,0.9,0.2,1.6,0.7,2.1s1.1,0.7,1.9,0.7c0.8,0,1.4-0.2,1.9-0.7
		s0.7-1.2,0.7-2.2v-5H184.5z"/>
	<path class="st5" d="M189.7,78.8c0.5-0.3,1.1-0.4,1.8-0.4v1.6h-0.4c-1.7,0-2.5,0.9-2.5,2.8v5H187v-9.1h1.5V80
		C188.8,79.5,189.2,79.1,189.7,78.8z"/>
	<path class="st5" d="M197.9,78.8c0.5-0.9,1.2-1.6,2.1-2.1c0.9-0.5,1.9-0.8,2.9-0.8c1.3,0,2.4,0.3,3.3,0.9s1.6,1.5,2.1,2.6h-1.8
		c-0.3-0.7-0.8-1.2-1.4-1.6c-0.6-0.4-1.3-0.6-2.2-0.6c-0.8,0-1.5,0.2-2.2,0.6c-0.6,0.4-1.1,0.9-1.5,1.6c-0.4,0.7-0.5,1.5-0.5,2.4
		c0,0.9,0.2,1.7,0.5,2.4s0.9,1.2,1.5,1.6c0.6,0.4,1.4,0.6,2.2,0.6c0.8,0,1.6-0.2,2.2-0.6s1.1-0.9,1.4-1.6h1.8
		c-0.4,1.1-1.1,2-2.1,2.6c-0.9,0.6-2,0.9-3.3,0.9c-1.1,0-2.1-0.3-2.9-0.8s-1.6-1.2-2.1-2.1c-0.5-0.9-0.8-1.9-0.8-3
		S197.4,79.7,197.9,78.8z"/>
	<path class="st5" d="M212,75.3v12.3h-1.5V75.3H212z"/>
	<path class="st5" d="M214.6,76.7c-0.2-0.2-0.3-0.4-0.3-0.7c0-0.3,0.1-0.5,0.3-0.7c0.2-0.2,0.4-0.3,0.7-0.3c0.3,0,0.5,0.1,0.7,0.3
		c0.2,0.2,0.3,0.4,0.3,0.7c0,0.3-0.1,0.5-0.3,0.7c-0.2,0.2-0.4,0.3-0.7,0.3C215.1,77,214.8,76.9,214.6,76.7z M216.1,78.5v9.1h-1.5
		v-9.1H216.1z"/>
	<path class="st5" d="M227,83.6h-7.3c0.1,0.9,0.4,1.6,0.9,2.1c0.6,0.5,1.2,0.8,2,0.8c0.7,0,1.2-0.2,1.6-0.5c0.4-0.3,0.7-0.7,0.9-1.2
		h1.6c-0.2,0.9-0.7,1.6-1.5,2.1c-0.7,0.5-1.6,0.8-2.7,0.8c-0.9,0-1.6-0.2-2.3-0.6c-0.7-0.4-1.2-0.9-1.6-1.7
		c-0.4-0.7-0.6-1.5-0.6-2.5c0-0.9,0.2-1.8,0.6-2.5c0.4-0.7,0.9-1.3,1.6-1.6c0.7-0.4,1.5-0.6,2.4-0.6c0.9,0,1.6,0.2,2.3,0.6
		c0.7,0.4,1.2,0.9,1.5,1.6s0.5,1.4,0.5,2.2C227,83,227,83.3,227,83.6z M225.1,80.9c-0.3-0.4-0.6-0.7-1-0.9c-0.4-0.2-0.9-0.3-1.5-0.3
		c-0.8,0-1.4,0.2-2,0.7s-0.8,1.2-0.9,2h5.8C225.4,81.8,225.3,81.3,225.1,80.9z"/>
	<path class="st5" d="M236.1,79.3c0.7,0.7,1,1.6,1,2.9v5.4h-1.5v-5.2c0-0.9-0.2-1.6-0.7-2.1s-1.1-0.7-1.9-0.7
		c-0.8,0-1.4,0.2-1.9,0.7c-0.5,0.5-0.7,1.2-0.7,2.2v5H229v-9.1h1.5v1.3c0.3-0.5,0.7-0.8,1.2-1.1s1.1-0.4,1.7-0.4
		C234.6,78.3,235.4,78.7,236.1,79.3z"/>
	<path class="st5" d="M241.5,79.7v5.4c0,0.4,0.1,0.8,0.3,0.9c0.2,0.2,0.5,0.3,1,0.3h1.1v1.3h-1.4c-0.8,0-1.5-0.2-1.9-0.6
		c-0.4-0.4-0.6-1-0.6-1.9v-5.4h-1.2v-1.2h1.2v-2.3h1.5v2.3h2.4v1.2H241.5z"/>
	<path class="st5" d="M245.9,76h1.7l-1.6,3.8H245L245.9,76z"/>
	<path class="st5" d="M250.7,87.4c-0.6-0.2-1-0.6-1.3-1c-0.3-0.4-0.5-0.9-0.5-1.5h1.6c0,0.5,0.3,0.8,0.6,1.1
		c0.4,0.3,0.9,0.4,1.5,0.4c0.6,0,1-0.1,1.4-0.4c0.3-0.3,0.5-0.6,0.5-1c0-0.4-0.2-0.7-0.5-0.9c-0.4-0.2-0.9-0.4-1.6-0.6
		c-0.7-0.2-1.2-0.4-1.7-0.5c-0.4-0.2-0.8-0.5-1.1-0.8s-0.5-0.8-0.5-1.4c0-0.5,0.1-0.9,0.4-1.3c0.3-0.4,0.7-0.7,1.2-0.9
		c0.5-0.2,1.1-0.3,1.7-0.3c1,0,1.8,0.3,2.4,0.8c0.6,0.5,1,1.2,1,2.1h-1.5c0-0.5-0.2-0.9-0.6-1.1c-0.3-0.3-0.8-0.4-1.4-0.4
		c-0.5,0-1,0.1-1.3,0.3c-0.3,0.2-0.5,0.5-0.5,0.9c0,0.3,0.1,0.5,0.3,0.7c0.2,0.2,0.4,0.3,0.7,0.5s0.7,0.2,1.2,0.4
		c0.7,0.2,1.2,0.4,1.6,0.5c0.4,0.2,0.8,0.4,1.1,0.8c0.3,0.3,0.4,0.8,0.5,1.3c0,0.5-0.1,0.9-0.4,1.3c-0.3,0.4-0.7,0.7-1.2,0.9
		c-0.5,0.2-1.1,0.3-1.7,0.3C251.9,87.8,251.2,87.6,250.7,87.4z"/>
</g>
</svg>
