<?xml version="1.0" encoding="utf-8"?>
<!-- Generator: Adobe Illustrator 27.8.1, SVG Export Plug-In . SVG Version: 6.00 Build 0)  -->
<svg version="1.1" id="Layer_1" xmlns="http://www.w3.org/2000/svg" xmlns:xlink="http://www.w3.org/1999/xlink" x="0px" y="0px"
	 viewBox="0 0 380 190" style="enable-background:new 0 0 380 190;" xml:space="preserve">
<style type="text/css">
	.st0{fill:#FFFFFF;}
	.st1{fill:#FDEDEF;}
	.st2{fill:#EE4A62;}
	.st3{fill:#89898B;}
	.st4{enable-background:new    ;}
</style>
<path shape-rendering="crispEdges" class="st0" d="M40,70c0-27.6,22.4-50,50-50h240c5.5,0,10,4.5,10,10v50c0,27.6-22.4,50-50,50H50
	c-5.5,0-10-4.5-10-10V70z"/>
<circle class="st1" cx="95" cy="75" r="25"/>
<path class="st2" d="M101.1,85.4c-1,0-2.3-0.3-4.3-1.5c-2.4-1.4-4.3-2.6-6.7-5c-2.3-2.3-3.5-3.8-5.1-6.7c-1.8-3.3-1.5-5-1.1-5.7
	c0.4-0.9,1-1.4,1.8-1.9c0.4-0.3,0.9-0.5,1.4-0.7c0,0,0.1,0,0.1-0.1c0.2-0.1,0.6-0.3,1.1-0.1c0.3,0.1,0.6,0.4,1,0.8
	c0.9,0.9,2.1,2.8,2.5,3.8c0.3,0.6,0.5,1.1,0.5,1.5c0,0.6-0.3,1-0.6,1.5c-0.1,0.1-0.1,0.2-0.2,0.3c-0.4,0.5-0.5,0.6-0.4,0.9
	c0.1,0.5,0.9,2,2.3,3.3s2.8,2.1,3.3,2.2c0.3,0.1,0.4,0,0.9-0.4c0.1-0.1,0.1-0.1,0.2-0.2c0.5-0.4,0.9-0.7,1.5-0.7l0,0
	c0.5,0,0.9,0.2,1.6,0.5c0.9,0.4,2.9,1.6,3.8,2.5c0.4,0.4,0.7,0.7,0.8,1c0.2,0.5,0,0.8-0.1,1.1c0,0,0,0.1-0.1,0.1
	c-0.2,0.5-0.5,1-0.7,1.4c-0.5,0.8-1,1.4-1.9,1.8C102.1,85.3,101.6,85.4,101.1,85.4z"/>
<path class="st3" d="M140.1,66.1c-0.9,0-1.6-0.2-2.4-0.6c-0.7-0.4-1.3-1-1.7-1.7s-0.6-1.5-0.6-2.4s0.2-1.7,0.6-2.4
	c0.4-0.7,1-1.3,1.7-1.7s1.5-0.6,2.4-0.6s1.6,0.2,2.4,0.6c0.7,0.4,1.3,1,1.7,1.7s0.6,1.5,0.6,2.4s-0.2,1.7-0.6,2.4
	c-0.4,0.7-1,1.3-1.7,1.7S141,66.1,140.1,66.1z M140.1,64.1c0.7,0,1.3-0.2,1.7-0.7s0.7-1.1,0.7-1.9c0-0.8-0.2-1.4-0.7-1.9
	c-0.4-0.5-1-0.7-1.7-0.7s-1.3,0.2-1.8,0.7c-0.4,0.5-0.7,1.1-0.7,1.9c0,0.8,0.2,1.5,0.7,1.9S139.4,64.1,140.1,64.1z M154.6,66h-2.2
	l-3.7-5.6V66h-2.2v-9.1h2.2l3.7,5.7v-5.7h2.2V66z M158.8,64.3h2.9V66h-5.1v-9.1h2.2L158.8,64.3L158.8,64.3z M165.4,56.9V66h-2.2
	v-9.1H165.4z M175.6,66h-2.2l-3.7-5.6V66h-2.2v-9.1h2.2l3.7,5.7v-5.7h2.2V66z M179.8,58.7v1.8h3v1.7h-3v2h3.4V66h-5.6v-9.1h5.6v1.8
	H179.8z M191.4,66.1c-0.7,0-1.3-0.1-1.8-0.3c-0.5-0.2-1-0.5-1.3-1c-0.3-0.4-0.5-0.9-0.5-1.5h2.4c0,0.3,0.2,0.6,0.4,0.8
	c0.2,0.2,0.5,0.3,0.8,0.3s0.6-0.1,0.8-0.2c0.2-0.2,0.3-0.4,0.3-0.6c0-0.2-0.1-0.4-0.2-0.6c-0.1-0.1-0.3-0.3-0.6-0.4
	c-0.2-0.1-0.5-0.2-0.9-0.3c-0.6-0.2-1.1-0.4-1.4-0.5s-0.7-0.5-1-0.8c-0.3-0.4-0.4-0.8-0.4-1.4c0-0.8,0.3-1.5,0.9-2
	c0.6-0.5,1.4-0.7,2.4-0.7s1.8,0.2,2.4,0.7c0.6,0.5,0.9,1.1,1,2h-2.4c0-0.3-0.1-0.5-0.3-0.7s-0.5-0.3-0.8-0.3s-0.5,0.1-0.6,0.2
	c-0.2,0.1-0.2,0.3-0.2,0.6s0.1,0.5,0.4,0.7c0.3,0.2,0.7,0.3,1.3,0.5s1.1,0.4,1.4,0.6c0.4,0.2,0.7,0.4,1,0.8s0.4,0.8,0.4,1.3
	s-0.1,1-0.4,1.4c-0.3,0.4-0.6,0.8-1.1,1C192.7,66,192.1,66.1,191.4,66.1z M198.7,56.9v5.5c0,0.5,0.1,1,0.4,1.3s0.7,0.4,1.2,0.4
	s0.9-0.1,1.2-0.4c0.3-0.3,0.4-0.7,0.4-1.3v-5.5h2.2v5.4c0,0.8-0.2,1.5-0.5,2.1c-0.3,0.6-0.8,1-1.4,1.3c-0.6,0.3-1.2,0.4-1.9,0.4
	s-1.4-0.1-1.9-0.4c-0.6-0.3-1-0.7-1.3-1.3c-0.3-0.6-0.5-1.3-0.5-2.1v-5.4H198.7z M213,59.8c0,0.5-0.1,1-0.4,1.5
	c-0.2,0.4-0.6,0.8-1.1,1.1s-1.1,0.4-1.9,0.4h-1.4V66H206v-9.1h3.6c0.7,0,1.3,0.1,1.8,0.4s0.9,0.6,1.1,1
	C212.9,58.7,213,59.2,213,59.8z M209.5,61c0.4,0,0.7-0.1,0.9-0.3s0.3-0.5,0.3-0.8s-0.1-0.6-0.3-0.8s-0.5-0.3-0.9-0.3h-1.2V61H209.5z
	 M221.5,59.8c0,0.5-0.1,1-0.4,1.5c-0.2,0.4-0.6,0.8-1.1,1.1s-1.1,0.4-1.9,0.4h-1.4V66h-2.2v-9.1h3.6c0.7,0,1.3,0.1,1.8,0.4
	c0.5,0.3,0.9,0.6,1.1,1C221.4,58.7,221.5,59.2,221.5,59.8z M218,61c0.4,0,0.7-0.1,0.9-0.3s0.3-0.5,0.3-0.8s-0.1-0.6-0.3-0.8
	s-0.5-0.3-0.9-0.3h-1.2V61H218z M227.4,66.1c-0.9,0-1.6-0.2-2.4-0.6c-0.7-0.4-1.3-1-1.7-1.7s-0.6-1.5-0.6-2.4s0.2-1.7,0.6-2.4
	c0.4-0.7,1-1.3,1.7-1.7s1.5-0.6,2.4-0.6s1.6,0.2,2.4,0.6c0.7,0.4,1.3,1,1.7,1.7s0.6,1.5,0.6,2.4s-0.2,1.7-0.6,2.4
	c-0.4,0.7-1,1.3-1.7,1.7C229,65.9,228.2,66.1,227.4,66.1z M227.4,64.1c0.7,0,1.3-0.2,1.7-0.7s0.7-1.1,0.7-1.9c0-0.8-0.2-1.4-0.7-1.9
	c-0.4-0.5-1-0.7-1.7-0.7s-1.3,0.2-1.8,0.7c-0.4,0.5-0.7,1.1-0.7,1.9c0,0.8,0.2,1.5,0.7,1.9C226.1,63.8,226.7,64.1,227.4,64.1z
	 M238.3,66l-1.9-3.4h-0.5V66h-2.2v-9.1h3.7c0.7,0,1.3,0.1,1.8,0.4c0.5,0.3,0.9,0.6,1.1,1c0.3,0.4,0.4,0.9,0.4,1.5s-0.2,1.1-0.5,1.6
	s-0.8,0.8-1.5,1l2.1,3.6H238.3z M235.9,61h1.4c0.4,0,0.7-0.1,0.9-0.3s0.3-0.5,0.3-0.8s-0.1-0.6-0.3-0.8s-0.5-0.3-0.9-0.3h-1.4V61z
	 M249.1,56.9v1.8h-2.4V66h-2.2v-7.3h-2.4v-1.8H249.1z"/>
<g class="st4">
	<path class="st2" d="M147.4,88h-4.6v4.7h-2.4V88h-4.6v-2.2h4.6v-4.7h2.4v4.7h4.6V88z"/>
	<path class="st2" d="M155.2,92.3c0.5,0.4,1.2,0.6,2,0.6c1.1,0,1.9-0.4,2.3-1.3c0.5-0.8,0.7-2.3,0.7-4.3c-0.4,0.5-0.9,0.9-1.5,1.2
		c-0.7,0.3-1.4,0.4-2.1,0.4c-1,0-1.9-0.2-2.7-0.6c-0.8-0.4-1.4-1-1.9-1.8s-0.7-1.7-0.7-2.9c0-1.7,0.5-3,1.5-4s2.3-1.5,4-1.5
		c2,0,3.5,0.7,4.4,2c0.9,1.4,1.3,3.5,1.3,6.3c0,1.9-0.2,3.5-0.5,4.8c-0.3,1.2-0.9,2.2-1.7,2.8c-0.8,0.6-1.9,0.9-3.3,0.9
		c-1.6,0-2.9-0.4-3.7-1.3c-0.9-0.8-1.4-1.9-1.5-3.2h2.4C154.4,91.3,154.7,91.9,155.2,92.3z M159.2,85.9c0.5-0.6,0.8-1.3,0.8-2.2
		c0-1-0.3-1.8-0.8-2.4c-0.5-0.6-1.3-0.9-2.2-0.9c-0.9,0-1.7,0.3-2.2,0.9s-0.8,1.4-0.8,2.3c0,0.9,0.3,1.7,0.8,2.3
		c0.5,0.6,1.3,0.9,2.4,0.9C158,86.7,158.7,86.4,159.2,85.9z"/>
	<path class="st2" d="M165,80.9v-2.3h4.7V95h-2.6V80.9H165z"/>
	<path class="st2" d="M189.6,80.6L183.3,95h-2.6l6.3-14.2h-8.4v-2.2h10.9V80.6z"/>
	<path class="st2" d="M193.3,79.4c1-0.8,2.2-1.2,3.8-1.2c1.1,0,2,0.2,2.7,0.6s1.3,0.9,1.7,1.5c0.4,0.6,0.6,1.4,0.6,2.2
		c0,0.9-0.2,1.7-0.7,2.4c-0.5,0.7-1.1,1.1-1.8,1.3v0.1c0.9,0.3,1.6,0.8,2.1,1.5c0.5,0.7,0.7,1.6,0.7,2.7c0,0.9-0.2,1.7-0.6,2.4
		s-1,1.2-1.8,1.6c-0.8,0.4-1.8,0.6-2.9,0.6c-1.6,0-3-0.4-4-1.3c-1-0.8-1.6-2-1.7-3.6h2.5c0.1,0.8,0.4,1.4,0.9,2
		c0.6,0.5,1.3,0.8,2.3,0.8c0.9,0,1.6-0.3,2.1-0.8s0.7-1.2,0.7-2c0-1.1-0.3-1.8-1-2.2c-0.7-0.4-1.7-0.7-3.1-0.7h-0.6v-2.1h0.6
		c1.2,0,2.1-0.2,2.8-0.6s1-1,1-1.9c0-0.7-0.2-1.3-0.7-1.7s-1.1-0.6-2-0.6c-0.8,0-1.5,0.2-2,0.6c-0.5,0.4-0.7,1-0.8,1.6h-2.5
		C191.8,81.2,192.3,80.1,193.3,79.4z"/>
	<path class="st2" d="M206.5,80.5c0.9-1.5,2.4-2.2,4.5-2.2s3.7,0.7,4.5,2.2s1.3,3.5,1.3,6.1c0,2.6-0.4,4.7-1.3,6.2S213.2,95,211,95
		s-3.7-0.7-4.5-2.2s-1.3-3.5-1.3-6.2C205.2,84,205.6,81.9,206.5,80.5z M214.1,83.5c-0.2-0.8-0.5-1.5-1-2.1c-0.5-0.5-1.2-0.8-2.1-0.8
		s-1.7,0.3-2.1,0.8c-0.5,0.5-0.8,1.2-1,2.1c-0.2,0.8-0.2,1.9-0.2,3.1c0,1.3,0.1,2.3,0.2,3.2c0.2,0.9,0.5,1.5,1,2.1
		c0.5,0.5,1.2,0.8,2.2,0.8s1.7-0.3,2.2-0.8c0.5-0.5,0.8-1.2,1-2.1c0.2-0.9,0.2-1.9,0.2-3.2C214.4,85.4,214.3,84.3,214.1,83.5z"/>
	<path class="st2" d="M230.3,80.8h-7.6v4.5c0.3-0.4,0.8-0.8,1.4-1.1s1.3-0.4,2-0.4c1.3,0,2.3,0.3,3.1,0.8c0.8,0.5,1.4,1.2,1.7,2.1
		c0.3,0.8,0.5,1.7,0.5,2.6c0,1.1-0.2,2.1-0.6,3c-0.4,0.9-1.1,1.5-1.9,2c-0.8,0.5-1.9,0.7-3.1,0.7c-1.6,0-3-0.4-4-1.2
		c-1-0.8-1.6-1.9-1.8-3.2h2.5c0.2,0.7,0.5,1.3,1.1,1.7s1.3,0.6,2.1,0.6c1.1,0,1.9-0.3,2.4-1s0.8-1.5,0.8-2.6c0-1.1-0.3-1.9-0.8-2.5
		c-0.5-0.6-1.3-0.9-2.4-0.9c-0.7,0-1.4,0.2-1.9,0.6c-0.5,0.4-0.9,0.9-1.1,1.5h-2.4v-9.5h9.9V80.8z"/>
	<path class="st2" d="M238.2,92.3c0.5,0.4,1.2,0.6,2,0.6c1.1,0,1.9-0.4,2.3-1.3c0.5-0.8,0.7-2.3,0.7-4.3c-0.4,0.5-0.9,0.9-1.5,1.2
		c-0.7,0.3-1.4,0.4-2.1,0.4c-1,0-1.9-0.2-2.7-0.6c-0.8-0.4-1.4-1-1.9-1.8s-0.7-1.7-0.7-2.9c0-1.7,0.5-3,1.5-4s2.3-1.5,4-1.5
		c2,0,3.5,0.7,4.4,2c0.9,1.4,1.3,3.5,1.3,6.3c0,1.9-0.2,3.5-0.5,4.8c-0.3,1.2-0.9,2.2-1.7,2.8c-0.8,0.6-1.9,0.9-3.3,0.9
		c-1.6,0-2.9-0.4-3.7-1.3c-0.9-0.8-1.4-1.9-1.5-3.2h2.4C237.4,91.3,237.7,91.9,238.2,92.3z M242.3,85.9c0.5-0.6,0.8-1.3,0.8-2.2
		c0-1-0.3-1.8-0.8-2.4c-0.5-0.6-1.3-0.9-2.2-0.9c-0.9,0-1.7,0.3-2.2,0.9c-0.5,0.6-0.8,1.4-0.8,2.3c0,0.9,0.3,1.7,0.8,2.3
		c0.5,0.6,1.3,0.9,2.4,0.9C241,86.7,241.8,86.4,242.3,85.9z"/>
	<path class="st2" d="M264.7,80.6L258.4,95h-2.6l6.3-14.2h-8.4v-2.2h10.9V80.6z"/>
	<path class="st2" d="M271.1,92.3c0.5,0.4,1.2,0.6,2,0.6c1.1,0,1.9-0.4,2.3-1.3c0.5-0.8,0.7-2.3,0.7-4.3c-0.4,0.5-0.9,0.9-1.5,1.2
		c-0.7,0.3-1.4,0.4-2.1,0.4c-1,0-1.9-0.2-2.7-0.6c-0.8-0.4-1.4-1-1.9-1.8s-0.7-1.7-0.7-2.9c0-1.7,0.5-3,1.5-4s2.3-1.5,4-1.5
		c2,0,3.5,0.7,4.4,2s1.3,3.5,1.3,6.3c0,1.9-0.2,3.5-0.5,4.8c-0.3,1.2-0.9,2.2-1.7,2.8c-0.8,0.6-1.9,0.9-3.3,0.9
		c-1.6,0-2.9-0.4-3.7-1.3c-0.9-0.8-1.4-1.9-1.5-3.2h2.4C270.3,91.3,270.6,91.9,271.1,92.3z M275.1,85.9c0.5-0.6,0.8-1.3,0.8-2.2
		c0-1-0.3-1.8-0.8-2.4s-1.3-0.9-2.2-0.9c-0.9,0-1.7,0.3-2.2,0.9c-0.5,0.6-0.8,1.4-0.8,2.3c0,0.9,0.3,1.7,0.8,2.3
		c0.5,0.6,1.3,0.9,2.4,0.9C273.9,86.7,274.6,86.4,275.1,85.9z"/>
	<path class="st2" d="M282.6,80.5c0.9-1.5,2.4-2.2,4.5-2.2s3.7,0.7,4.5,2.2s1.3,3.5,1.3,6.1c0,2.6-0.4,4.7-1.3,6.2s-2.4,2.2-4.5,2.2
		s-3.7-0.7-4.5-2.2s-1.3-3.5-1.3-6.2C281.3,84,281.7,81.9,282.6,80.5z M290.2,83.5c-0.2-0.8-0.5-1.5-1-2.1c-0.5-0.5-1.2-0.8-2.1-0.8
		s-1.7,0.3-2.1,0.8c-0.5,0.5-0.8,1.2-1,2.1c-0.2,0.8-0.2,1.9-0.2,3.1c0,1.3,0.1,2.3,0.2,3.2c0.2,0.9,0.5,1.5,1,2.1
		c0.5,0.5,1.2,0.8,2.2,0.8s1.7-0.3,2.2-0.8c0.5-0.5,0.8-1.2,1-2.1c0.2-0.9,0.2-1.9,0.2-3.2C290.5,85.4,290.4,84.3,290.2,83.5z"/>
	<path class="st2" d="M303.7,80.8c-0.4-0.3-1-0.5-1.8-0.5c-1.2,0-2.1,0.5-2.7,1.4c-0.6,0.9-0.9,2.4-0.9,4.5c0.4-0.7,1-1.2,1.7-1.5
		c0.8-0.4,1.6-0.5,2.4-0.5c1,0,1.9,0.2,2.6,0.6c0.8,0.4,1.4,1,1.8,1.9c0.4,0.8,0.6,1.8,0.6,2.9c0,1.1-0.2,2-0.6,2.8
		c-0.4,0.8-1,1.5-1.8,2c-0.8,0.5-1.8,0.7-2.9,0.7c-1.6,0-2.8-0.3-3.6-1c-0.9-0.7-1.5-1.7-1.9-2.9s-0.5-2.8-0.5-4.7
		c0-5.5,1.9-8.3,5.8-8.3c1.5,0,2.7,0.4,3.6,1.2s1.4,1.8,1.5,3h-2.4C304.4,81.7,304.1,81.2,303.7,80.8z M299.5,87.1
		c-0.6,0.5-1,1.3-1,2.4c0,1,0.3,1.9,0.9,2.5c0.6,0.6,1.4,0.9,2.5,0.9c0.9,0,1.7-0.3,2.2-0.9s0.8-1.4,0.8-2.3c0-1-0.3-1.8-0.8-2.4
		s-1.3-0.9-2.4-0.9C300.9,86.3,300.1,86.6,299.5,87.1z"/>
	<path class="st2" d="M309.9,80.9v-2.3h4.7V95H312V80.9H309.9z"/>
</g>
</svg>
